<?xml version="1.0" encoding="UTF-8" standalone="no"?>
<!-- Created with Inkscape (http://www.inkscape.org/) -->

<svg
   xmlns:dc="http://purl.org/dc/elements/1.1/"
   xmlns:cc="http://creativecommons.org/ns#"
   xmlns:rdf="http://www.w3.org/1999/02/22-rdf-syntax-ns#"
   xmlns:svg="http://www.w3.org/2000/svg"
   xmlns="http://www.w3.org/2000/svg"
   xmlns:sodipodi="http://sodipodi.sourceforge.net/DTD/sodipodi-0.dtd"
   xmlns:inkscape="http://www.inkscape.org/namespaces/inkscape"
   width="744.09448819"
   height="1052.3622047"
   id="svg2"
   version="1.1"
   inkscape:version="0.48.4 r9939"
   sodipodi:docname="新建文档 1">
  <defs
     id="defs4" />
  <sodipodi:namedview
     id="base"
     pagecolor="#ffffff"
     bordercolor="#666666"
     borderopacity="1.0"
     inkscape:pageopacity="0.0"
     inkscape:pageshadow="2"
     inkscape:zoom="0.35"
     inkscape:cx="375"
     inkscape:cy="514.28571"
     inkscape:document-units="px"
     inkscape:current-layer="layer1"
     showgrid="false"
     inkscape:window-width="674"
     inkscape:window-height="483"
     inkscape:window-x="389"
     inkscape:window-y="62"
     inkscape:window-maximized="0" />
  <metadata
     id="metadata7">
    <rdf:RDF>
      <cc:Work
         rdf:about="">
        <dc:format>image/svg+xml</dc:format>
        <dc:type
           rdf:resource="http://purl.org/dc/dcmitype/StillImage" />
        <dc:title></dc:title>
      </cc:Work>
    </rdf:RDF>
  </metadata>
  <g
     inkscape:label="Layer 1"
     inkscape:groupmode="layer"
     id="layer1">
    <path
       style="fill:none;stroke:#000000;stroke-width:1px;stroke-linecap:butt;stroke-linejoin:miter;stroke-opacity:1"
       d="m 145.71429,383.79075 c -4.76191,2.85715 -9.46411,5.81623 -14.28572,8.57143 -1.849,1.05657 -3.94236,1.67586 -5.71428,2.85715 -1.12067,0.7471 -1.65247,2.2548 -2.85715,2.85714 -6.31662,3.15831 -6.55848,2.85714 -11.42857,2.85714 -0.95238,0 -1.95363,-0.30117 -2.85714,0 -2.02031,0.67344 -3.69398,2.18371 -5.71429,2.85714 -1.80701,0.60234 -3.907267,-0.60233 -5.714283,0 -2.020305,0.67344 -3.69398,2.18371 -5.714286,2.85715 -1.793295,0.59776 -9.12847,0 -11.428571,0 -1.904762,0 -3.809524,0 -5.714286,0 -0.952381,0 -2.857143,0.95238 -2.857143,0 0,-0.95238 3.530578,-0.67344 2.857143,0 -1.505846,1.50584 -5.04085,0.83683 -5.714285,2.85714 -0.864871,2.59461 4.086256,6.9434 5.714285,8.57143 1.504184,1.50418 7.045475,7.80845 8.571429,8.57143 1.703671,0.85183 4.010615,-0.85184 5.714286,0 1.204677,0.60234 1.579389,2.43122 2.857142,2.85714 1.943717,0.64791 12.770749,-0.75749 14.285719,0 1.20467,0.60234 1.65246,2.2548 2.85714,2.85714 1.70367,0.85184 4.01061,-0.85183 5.71428,0 1.20468,0.60234 1.65247,2.25481 2.85715,2.85715 0.86867,0.43433 9.45565,0 11.42857,0 0.95238,0 1.90476,0 2.85714,0 0.95238,0 2.00531,-0.42592 2.85714,0 2.40936,1.20467 3.30494,4.5096 5.71429,5.71428 1.77438,0.88719 15.31207,-0.91539 17.14286,0 1.20467,0.60234 1.65246,2.25481 2.85714,2.85714 0.86867,0.43434 9.45565,0 11.42857,0 8.2404,0 3.78797,0.23271 14.28572,2.85715 3.1147,0.77867 15.3371,-0.90288 17.14285,0 1.20468,0.60234 1.57939,2.43122 2.85715,2.85714 2.71052,0.90351 5.71428,0 8.57142,0 5.71429,0 11.42858,0 17.14286,0 2.85714,0 6.01592,-1.27775 8.57143,0 2.40935,1.20468 3.47296,4.22007 5.71429,5.71429 0.79242,0.52828 1.90476,0 2.85714,0 1.90476,0 3.80952,0 5.71428,0 4.76191,0 9.52381,0 14.28572,0 16.19047,0 32.38095,0 48.57143,0 12.38095,0 24.7619,0 37.14285,0 2.02515,0 16.40415,0.36935 17.14286,0 1.20468,-0.60234 1.65247,-2.25481 2.85714,-2.85715 0.85184,-0.42592 1.95364,0.30117 2.85715,0 2.0203,-0.67343 3.69398,-2.18371 5.71428,-2.85714 0.90351,-0.30117 2.00531,0.42592 2.85715,0 1.20467,-0.60234 1.65246,-2.2548 2.85714,-2.85714 0.85183,-0.42592 2.00531,0.42591 2.85714,0 6.02353,-3.01177 -0.30924,-2.70252 5.71429,-5.71429 2.28571,-1.14286 6.28571,1.14286 8.57143,0 1.20467,-0.60234 1.65246,-2.2548 2.85714,-2.85714 0.84993,-0.42497 15.94096,0 17.14286,0 0.95238,0 2.0053,0.42592 2.85714,0 1.20468,-0.60234 1.65246,-2.25481 2.85714,-2.85714 0.9105,-0.45525 11.73222,0 14.28572,0 6.45496,0 -1.27776,0.42591 8.57142,-2.85715 1.74312,-0.58104 14.9362,0 17.14286,0 0.95238,0 2.00531,0.42592 2.85714,0 2.40936,-1.20467 3.30494,-4.50961 5.71429,-5.71428 0.85184,-0.42592 1.90476,0 2.85714,0 3.48766,0 6.58852,-1.10869 8.57143,2.85714 0.42592,0.85184 0.42592,2.00531 0,2.85714 -3.15865,6.3173 -1.77326,0.88664 -5.71428,2.85715 -1.20468,0.60233 -1.90477,1.90476 -2.85715,2.85714 -3.269,3.269 -3.3822,3.98454 -8.57143,5.71428 -1.80701,0.60234 -4.01061,-0.85183 -5.71428,0 -1.20468,0.60234 -1.90476,1.90477 -2.85714,2.85715 -1.90477,0 -3.90727,-0.60234 -5.71429,0 -1.27775,0.42591 -1.65247,2.2548 -2.85714,2.85714 -1.81234,0.90617 -12.42965,-0.92803 -14.28572,0 -2.40935,1.20468 -3.30493,4.50961 -5.71428,5.71429 -0.85184,0.42591 -1.90476,0 -2.85715,0 -0.95238,0 -1.90476,0 -2.85714,0 -5.71428,0 -11.42857,0 -17.14286,0 -0.95238,0 -1.90476,0 -2.85714,0 -0.95238,0 -2.00531,-0.42592 -2.85714,0 -7.06116,3.53057 0.98622,2.85714 -5.71429,2.85714 -6.66666,0 -13.33333,0 -20,0 -2.85714,0 -5.71428,0 -8.57143,0 -0.95238,0 -2.85714,0.95238 -2.85714,0 0,-0.95238 1.90476,0 2.85714,0 5.71429,0 11.42858,0 17.14286,0 9.52381,0 19.04762,0 28.57143,0 0.67894,0 10.7882,0.32018 11.42857,0 1.20468,-0.60234 1.57939,-2.43123 2.85714,-2.85714 1.30682,-0.43561 10.15721,0.63568 11.42858,0 1.20467,-0.60234 1.57939,-2.43123 2.85714,-2.85715 1.80701,-0.60234 3.80952,0 5.71428,0 0.95239,0 2.00531,0.42592 2.85715,0 1.20467,-0.60234 1.65246,-2.2548 2.85714,-2.85714 0.85184,-0.42592 1.90476,0 2.85714,0 1.90476,0 3.90727,0.60234 5.71429,0 1.27775,-0.42592 1.65246,-2.2548 2.85714,-2.85714 0.85184,-0.42592 2.00531,0.42591 2.85714,0 2.40936,-1.20468 3.30494,-4.50961 5.71429,-5.71429 2.28571,-1.14286 6.28571,1.14286 8.57143,0 1.20468,-0.60234 1.57939,-2.43122 2.85714,-2.85714 1.80702,-0.60234 3.80953,0 5.71429,0 0.95238,0 2.0053,0.42592 2.85714,0 1.20468,-0.60234 1.65247,-2.25481 2.85714,-2.85714 0.85184,-0.42592 2.00531,0.42591 2.85715,0 1.20467,-0.60234 1.65246,-2.25481 2.85714,-2.85715 2.28571,-1.14285 6.28571,1.14286 8.57143,0 3.42857,-1.71428 5.14285,-6.85714 8.57143,-8.57143 0.85183,-0.42591 2.0053,0.42592 2.85714,0 1.20468,-0.60233 1.65246,-2.2548 2.85714,-2.85714 0.85184,-0.42592 1.90476,0 2.85714,0 0.95239,-0.95238 1.65247,-2.2548 2.85715,-2.85714 0.85183,-0.42592 2.0053,0.42592 2.85714,0 3.3069,-1.65345 5.61966,-8.61874 5.71429,-8.57143 1.90476,0.95238 -4.98674,5.71429 -2.85715,5.71429 2.69374,0 3.80953,-3.80953 5.71429,-5.71429 9.47595,-9.47595 -2.69374,1.34687 5.71428,-2.85714 1.20468,-0.60234 1.90477,-1.90477 2.85715,-2.85715"
       id="path2985"
       inkscape:connector-curvature="0" />
    <path
       style="fill:none;stroke:#000000;stroke-width:1px;stroke-linecap:butt;stroke-linejoin:miter;stroke-opacity:1"
       d="m 565.71429,403.79075 c -2.5535,0 -13.37522,0.45525 -14.28572,0 -1.20468,-0.60233 -1.65246,-2.2548 -2.85714,-2.85714 -0.85184,-0.42592 -1.90476,0 -2.85714,0 -1.90477,0 -3.90727,0.60234 -5.71429,0 -1.27775,-0.42592 -1.90476,-1.90476 -2.85714,-2.85714 -1.90476,-1.90476 -3.47296,-4.22007 -5.71429,-5.71429 -0.79243,-0.52828 -2.00531,0.42592 -2.85714,0 -1.20468,-0.60234 -1.65247,-2.2548 -2.85714,-2.85714 -1.51497,-0.75749 -12.342,0.64791 -14.28572,0 -1.27775,-0.42592 -1.65246,-2.2548 -2.85714,-2.85714 -0.85184,-0.42592 -1.9332,0.23098 -2.85714,0 -2.92178,-0.73045 -5.64966,-2.1267 -8.57143,-2.85715 -0.41366,-0.10341 -8.45899,-0.075 -8.57143,0 -2.24133,1.49422 -3.47296,4.22007 -5.71429,5.71429 -1.58485,1.05657 -3.86639,-0.46197 -5.71428,0 -2.92177,0.73044 -5.87769,1.51027 -8.57143,2.85714 -8.71303,4.35652 5.22555,2.26504 -8.57143,5.71429 -2.55081,0.6377 -10.97849,0 -14.28571,0 -1.12947,0 -13.06548,0.61012 -14.28572,0 -1.20468,-0.60234 -2.43122,-1.57939 -2.85714,-2.85714 -0.004,-0.0129 0.003,-8.56843 0,-8.57143 -0.67344,-0.67344 -2.85714,0.95238 -2.85714,0 0,-1.34687 3.80952,-1.90477 2.85714,-2.85715 -0.95238,-0.95238 -1.90476,1.90477 -2.85714,2.85715 -2.17503,2.17502 -5.11195,5.71428 -8.57143,5.71428 -1.34687,0 3.80952,-1.90476 2.85714,-2.85714 -0.95238,-0.95238 -1.57939,2.43122 -2.85714,2.85714 -1.80702,0.60234 -3.80953,0 -5.71429,0 -0.95238,0 -2.00531,-0.42592 -2.85714,0 -1.20468,0.60234 -1.60661,2.35693 -2.85714,2.85715 -3.64592,1.45836 -7.70332,1.61539 -11.42858,2.85714 -0.9035,0.30117 2.85715,0.95238 2.85715,0 0,-0.95238 -1.90476,0 -2.85715,0 -1.90476,0 -3.80952,0 -5.71428,0 -0.95238,0 2.85714,0.95238 2.85714,0 0,-0.95238 -1.90476,0 -2.85714,0 -4.76191,0 -9.52381,0 -14.28572,0 -2.23338,0 -18.43817,0.52061 -20,0 -2.0203,-0.67344 -3.58469,-2.85714 -5.71428,-2.85714 -1.34687,0 1.90476,3.80952 2.85714,2.85714 0.95238,-0.95238 -1.90476,-1.90476 -2.85714,-2.85714 -0.95238,-0.95239 -1.57939,-2.43123 -2.85714,-2.85715 -1.80702,-0.60234 -3.90727,0.60234 -5.71429,0 -2.55551,-0.85183 -3.30493,-4.50961 -5.71429,-5.71428 -2.98252,-1.49127 -2.73176,1.49126 -5.71428,0 -1.20468,-0.60234 -1.65247,-2.25481 -2.85714,-2.85715 -0.85184,-0.42591 -1.90477,0 -2.85715,0 -4.7619,0 -9.52381,0 -14.28571,0 -0.95238,0 -1.90476,0 -2.85714,0 -0.95239,0 -2.00531,0.42592 -2.85715,0 -2.40935,-1.20467 -3.30493,-4.5096 -5.71428,-5.71428 -0.85184,-0.42592 -1.90476,0 -2.85715,0 -0.95238,0 -1.90476,0 -2.85714,0 -4.7619,0 -9.52381,0 -14.28571,0 -0.95238,0 2.85714,0.95238 2.85714,0 0,-0.95238 -1.90476,0 -2.85714,0 -3.80953,0 -7.61905,0 -11.42857,0 -12.34689,0 -9.59652,0 -20,0 -1.86375,0 -9.17742,-0.56279 -11.42858,0 -2.92177,0.73044 -5.64965,2.1267 -8.57142,2.85714 -2.10919,0.5273 -12.24765,0 -14.28572,0 -2.85714,0 -5.71428,0 -8.57143,0 -0.95238,0 2.85715,0.95238 2.85715,0 0,-0.95238 -1.90477,0 -2.85715,0 -4.7619,0 -9.52381,0 -14.28571,0 -9.86533,0 -6.58688,0 -20,0 -2.76352,0 -16.29547,-0.42369 -17.14286,0 -1.20468,0.60234 -1.65246,2.25481 -2.85714,2.85714 -0.85184,0.42592 -2.00531,-0.42591 -2.85714,0 -2.40936,1.20468 -3.30494,4.50961 -5.71429,5.71429 -7.037,3.5185 2.57924,-8.29353 -8.57143,2.85714 -0.67343,0.67344 2.85714,0.95238 2.85714,0 0,-0.95238 -1.90476,0 -2.85714,0 -2.85714,0 -5.71428,0 -8.57143,0 -9.197,0 4.87745,-0.67343 -5.71428,2.85715 -1.80702,0.60233 -3.80953,0 -5.71429,0 -0.95238,0 -2.00531,-0.42592 -2.85714,0 -1.20468,0.60233 -1.65247,2.2548 -2.85714,2.85714 -1.70368,0.85183 -4.01062,-0.85184 -5.71429,0 -2.409354,1.20468 -3.304931,4.50961 -5.714286,5.71428 -1.271364,0.63569 -10.121751,-0.4356 -11.428571,0 -4.04061,1.34687 -7.619048,3.80953 -11.428572,5.71429 15.169978,-6.06799 9.156986,-5.71429 17.142858,-5.71429 1.904761,0 3.907269,0.60234 5.714285,0 2.555507,-0.85183 3.304932,-4.5096 5.714286,-5.71428 2.28571,-1.14286 6.28571,1.14286 8.57143,0 1.20468,-0.60234 1.57939,-2.43123 2.85714,-2.85714 2.71053,-0.90351 5.71429,0 8.57143,0 0.95238,0 1.90476,0 2.85714,0 0.95238,0 2.85715,-0.95239 2.85715,0 0,0.95238 -1.90477,0 -2.85715,0 -4,0 -1.71428,0 -5.71428,0 -4.76191,0 -9.52381,0 -14.28572,0 -12.38095,0 -24.761902,0 -37.142854,0 -2.031402,0 -8.571429,-1.20014 -8.571429,2.85714 0,1.90476 4.367416,-1.34687 5.714286,0 3.367175,3.36717 4.194547,9.55276 8.571428,11.42857 3.609269,1.54683 7.555232,-2.21159 11.428572,-2.85714 1.552236,-0.25871 13.05066,0.61752 14.285714,0 1.204677,-0.60234 1.652466,-2.25481 2.857143,-2.85715 1.70367,-0.85183 4.01061,0.85184 5.71429,0 2.40935,-1.20467 3.15878,-4.86245 5.71428,-5.71428 1.11579,-0.37193 8.57143,1.60986 8.57143,-2.85714 0,-0.95239 -1.90476,0 -2.85714,0 -2.85715,0 -5.71429,0 -8.57143,0 -6.70051,0 1.34687,-0.67344 -5.71429,2.85714 -0.85183,0.42592 -2.0053,-0.42592 -2.85714,0 -1.204677,0.60234 -1.652466,2.2548 -2.857143,2.85714 -1.703671,0.85184 -4.010615,-0.85183 -5.714286,0 -1.204677,0.60234 -1.652465,2.25481 -2.857142,2.85714 -0.851836,0.42592 -2.005308,-0.42591 -2.857143,0 -1.204677,0.60234 -1.606606,2.35693 -2.857143,2.85715 -3.645912,1.45836 -11.428572,-1.06963 -11.428572,2.85714 0,3.80952 7.619048,0 11.428572,0 1.904762,0 3.866395,0.46197 5.714286,0 2.066004,-0.5165 3.69398,-2.18371 5.714285,-2.85714 0.903508,-0.30117 2.005308,0.42591 2.857143,0 1.204677,-0.60234 1.652466,-2.25481 2.857143,-2.85715 2.28571,-1.14285 6.28571,1.14286 8.57143,0 2.40935,-1.20467 3.30493,-4.5096 5.71428,-5.71428 0.85184,-0.42592 2.00531,0.42592 2.85715,0 2.40935,-1.20468 3.30493,-4.50961 5.71428,-5.71429 2.39517,-1.19758 11.42857,2.70453 11.42857,-2.85714 0,-0.95238 -1.90476,0 -2.85714,0 -0.95238,0 -1.90476,0 -2.85714,0 -0.97336,0 -9.88227,-0.51543 -11.42857,0 -2.02031,0.67343 -3.69398,2.18371 -5.71429,2.85714 -0.90351,0.30117 -1.90476,0 -2.85714,0 -2.69097,0 -12.660395,-0.54177 -14.285716,0 -1.277753,0.42592 -1.904762,1.90476 -2.857143,2.85715 -0.952381,0.95238 -2.857142,1.51027 -2.857142,2.85714 0,0.95238 1.904761,0 2.857142,0 0.952381,0 1.904762,0 2.857143,0 6.700506,0 -1.34687,0.67343 5.714286,-2.85714 2.28571,-1.14286 6.28571,1.14285 8.57143,0 8.40802,-4.20402 -4.4351,-2.85715 8.57143,-2.85715 1.28673,0 7.7019,0.43477 8.57143,0 1.20467,-0.60234 1.65246,-2.2548 2.85714,-2.85714 1.79578,-0.89789 9.63279,0.89789 11.42857,0 2.40935,-1.20468 3.30493,-4.50961 5.71429,-5.71429 1.22023,-0.61012 13.15624,0 14.28571,0 12.38095,0 24.7619,0 37.14286,0 1.90476,0 3.80952,0 5.71428,0 0.95238,0 2.00531,-0.42591 2.85715,0 1.20467,0.60234 1.65246,2.25481 2.85714,2.85715 0.91049,0.45524 11.73222,0 14.28571,0 3.80953,0 7.61905,0 11.42857,0 0.95239,0 3.80953,0 2.85715,0 -1.90476,0 -3.80953,0 -5.71429,0 0,0.95238 0.90351,2.55597 0,2.85714 -1.72076,0.57359 -20.40108,0 -22.85714,0 -0.95238,0 -2.00531,-0.42592 -2.85714,0 -1.20468,0.60234 -1.65247,2.2548 -2.85715,2.85714 -1.1264,0.56321 -11.46368,0 -14.28571,0 -10.47619,0 -20.95238,0 -31.42857,0 -1.7027,0 -19.29833,-0.35084 -20,0 -2.40936,1.20468 -3.47296,4.22007 -5.71429,5.71429 -0.79243,0.52828 -2.85714,0.95238 -2.85714,0 0,-4.73798 4.00677,-2.00339 5.71428,-2.85714 1.20468,-0.60234 1.65247,-2.25481 2.85715,-2.85715 1.79577,-0.89789 9.63279,0.89789 11.42857,0 1.20468,-0.60234 1.65246,-2.2548 2.85714,-2.85714 0.85184,-0.42592 1.90476,0 2.85714,0 1.90477,-1.90476 3.47296,-4.22007 5.71429,-5.71429 0.88355,-0.58903 12.92648,0.45308 14.28571,0 1.27776,-0.42591 1.65247,-2.2548 2.85715,-2.85714 1.70367,-0.85183 4.01061,0.85184 5.71428,0 1.20468,-0.60234 1.65247,-2.2548 2.85715,-2.85714 0.85183,-0.42592 2.85714,-0.95238 2.85714,0 0,0.95238 -1.90476,0 -2.85714,0 -1.90477,0 -3.80953,0 -5.71429,0 -0.95238,0 -2.00531,-0.42592 -2.85714,0 -2.40936,1.20468 -3.15878,4.86245 -5.71429,5.71428 -3.03603,1.01202 -8.39254,-1.01201 -11.42857,0 -2.02031,0.67344 -3.69398,2.18371 -5.71429,2.85715 -0.9035,0.30117 -3.53057,0.67343 -2.85714,0 11.15067,-11.15067 1.53443,0.66136 8.57143,-2.85715 1.20468,-0.60233 1.65247,-2.2548 2.85714,-2.85714 1.73492,-0.86746 15.40794,0.86746 17.14286,0 1.20468,-0.60234 1.90476,-1.90476 2.85714,-2.85714 1.90476,0 3.90727,0.60234 5.71429,0 1.27775,-0.42592 1.65246,-2.25481 2.85714,-2.85714 0.85184,-0.42592 3.80953,0 2.85714,0 -5.71428,0 -11.42857,0 -17.14285,0 -0.95238,0 -1.90476,0 -2.85715,0 -0.95238,0 -2.0053,-0.42592 -2.85714,0 -1.20468,0.60233 -1.65246,2.2548 -2.85714,2.85714 -0.85184,0.42592 -1.90476,0 -2.85714,0 -0.95239,0 -1.90477,0 -2.85715,0 -1.70751,0 -5.71428,0.67343 -5.71428,-2.85714 0,-0.95239 2.06471,0.52828 2.85714,0 9.30242,-6.20162 1.65874,-5.31482 11.42857,-8.57143 0.90351,-0.30117 1.90476,0 2.85714,0 0.95239,0 2.85715,-0.95238 2.85715,0 0,0.95238 -3.53058,0.67343 -2.85715,0 1.50585,-1.50585 3.69398,-2.18371 5.71429,-2.85715 0.90351,-0.30117 1.90476,0 2.85714,0 1.90476,0 3.80953,0 5.71429,0 1.90476,0 7.61905,0 5.71428,0 -1.90476,0 -7.61904,0 -5.71428,0 7.61905,0 15.23809,0 22.85714,0 14.28572,0 28.57143,0 42.85714,0 0.67895,0 10.7882,-0.32018 11.42858,0 3.07133,1.53567 5.62692,3.94758 8.57142,5.71429 1.82611,1.09566 3.80953,1.90476 5.71429,2.85714 1.90476,0.95238 3.69398,2.18371 5.71429,2.85715 1.80701,0.60233 3.90727,-0.60234 5.71428,0 6.41468,2.13822 7.7654,5.31127 14.28572,8.57142 0.85183,0.42592 2.0053,-0.42591 2.85714,0 1.20468,0.60234 1.57939,2.43123 2.85714,2.85715 1.80702,0.60234 5.71429,-1.90477 5.71429,0 0,1.90476 -7.61905,0 -5.71429,0 2.85714,0 5.71429,0 8.57143,0 0.95238,0 1.90476,0 2.85714,0 0.95238,0 2.00531,-0.42592 2.85715,0 1.20467,0.60234 1.65246,2.2548 2.85714,2.85714 1.79578,0.89789 9.63279,-0.89789 11.42857,0 1.20468,0.60234 1.65247,2.2548 2.85714,2.85714 1.70367,0.85184 4.01062,-0.85183 5.71429,0 2.40935,1.20468 3.15878,4.86245 5.71428,5.71429 1.62532,0.54177 11.59475,0 14.28572,0 4.7619,0 9.52381,0 14.28571,0 1.90476,0 3.80953,0 5.71429,0 0.95238,0 2.85714,-0.95238 2.85714,0 0,0.95238 -3.80952,0 -2.85714,0 2.85714,0 5.76977,0.56033 8.57143,0 2.08823,-0.41765 3.69398,-2.18371 5.71428,-2.85714 1.612,-0.53734 6.69398,0 8.57143,0 6.66667,0 13.33333,0 20,0 15.2381,0 30.47619,0 45.71429,0 3.80952,0 7.61904,0 11.42857,0 0.95238,0 2.85714,-0.95239 2.85714,0 0,0.95238 -3.80952,0 -2.85714,0 4.7619,0 9.52381,0 14.28571,0 1.90476,0 7.61905,0 5.71429,0 -1.90476,0 -7.61905,0 -5.71429,0 9.52381,0 19.04762,0 28.57143,0 4.76191,0 9.52381,0 14.28572,0 0.95238,0 2.85714,-0.95239 2.85714,0 0,0.95238 -3.80953,0 -2.85714,0 1.90476,0 3.96353,-0.75033 5.71428,0 5.10428,2.18754 11.20531,13.19203 14.28572,8.57142 3.54385,-5.31577 -5.40172,-11.59585 -8.57143,-17.14285 -0.66824,-1.16941 -1.65247,-2.25481 -2.85715,-2.85715 -0.75126,-0.37563 -9.93451,0 -11.42857,0 -0.67894,0 -10.7882,-0.32018 -11.42857,0 -1.20468,0.60234 -1.57939,2.43123 -2.85714,2.85715 -1.80702,0.60234 -3.80953,0 -5.71429,0 -0.95238,0 -2.0053,-0.42592 -2.85714,0 -1.20468,0.60234 -1.65247,2.2548 -2.85714,2.85714 -0.85184,0.42592 -1.90476,0 -2.85715,0 -1.90476,0 -3.90727,-0.60234 -5.71428,0 -1.27775,0.42592 -1.65247,2.2548 -2.85714,2.85714 -0.85184,0.42592 -1.90477,0 -2.85715,0 -0.95238,0 -1.90476,0 -2.85714,0 -2.33569,0 -18.55191,-0.48269 -20,0 -2.55551,0.85184 -3.30493,4.50961 -5.71429,5.71429 -0.85183,0.42592 -1.90476,0 -2.85714,0 -1.90476,0 -3.80952,0 -5.71428,0 -0.95239,0 -1.90477,0 -2.85715,0 -0.95238,0 -2.85714,0.95238 -2.85714,0 0,-0.95238 3.80952,0 2.85714,0 -1.90476,0 -3.80952,0 -5.71428,0"
       id="path2987"
       inkscape:connector-curvature="0" />
    <path
       style="fill:none;stroke:#000000;stroke-width:1px;stroke-linecap:butt;stroke-linejoin:miter;stroke-opacity:1"
       d="m 60,398.07647 c 17.532553,0 28.913167,0 40,0 2.69096,0 12.66039,-0.54178 14.28571,0 1.27776,0.42592 1.65247,2.2548 2.85715,2.85714 1.70367,0.85184 3.90727,-0.60234 5.71428,0 2.02031,0.67344 3.69398,2.18371 5.71429,2.85714 1.80701,0.60234 3.80952,0 5.71428,0 0.95239,0 3.80953,0 2.85715,0 -10.79365,0 -5.07937,0 5.71428,0 0.95238,0 1.95364,-0.30117 2.85715,0 2.0203,0.67344 3.64828,2.34065 5.71428,2.85715 2.17718,0.54429 17.04389,0 20,0 1.90476,0 3.90727,-0.60234 5.71429,0 2.0203,0.67343 3.69398,2.1837 5.71428,2.85714 1.612,0.53733 6.69398,0 8.57143,0 5.71429,0 11.42857,0 17.14286,0 13.33333,0 26.66667,0 40,0 13.33333,0 26.66667,0 40,0 3.80952,0 7.61905,0 11.42857,0 0.95238,0 1.90476,0 2.85714,0 0.95238,0 2.06472,-0.52829 2.85715,0 2.24132,1.49422 3.30493,4.50961 5.71428,5.71429 1.07184,0.53592 15.44179,0 17.14286,0 12.38095,0 24.7619,0 37.14286,0 1.90476,0 3.80952,0 5.71428,0 0.95238,0 2.00531,-0.42592 2.85714,0 1.20468,0.60233 1.65247,2.2548 2.85715,2.85714 0.91049,0.45525 11.73222,0 14.28571,0 10.47619,0 20.95238,0 31.42857,0 20.95238,0 41.90476,0 62.85715,0 6.66666,0 13.33333,0 20,0 2.85714,0 5.8609,0.90351 8.57142,0 1.27776,-0.42592 1.65247,-2.25481 2.85715,-2.85714 0.85183,-0.42592 2.0053,0.42591 2.85714,0 1.20468,-0.60234 1.57939,-2.43123 2.85714,-2.85715 1.80702,-0.60234 3.80953,0 5.71429,0 0.95238,0 2.00531,0.42592 2.85714,0 1.20468,-0.60234 1.65247,-2.2548 2.85714,-2.85714 0.84739,-0.42369 14.37934,0 17.14286,0 1.90476,0 3.80953,0 5.71429,0 0.95238,0 2.85714,-0.95238 2.85714,0 0,0.95238 -1.90476,0 -2.85714,0 -0.95238,0 -1.90476,0 -2.85715,0 -6.66666,0 -13.33333,0 -20,0 -20.95238,0 -41.90476,0 -62.85714,0 -2.02515,0 -16.40414,-0.36936 -17.14286,0 -2.40935,1.20468 -3.30493,4.50961 -5.71428,5.71429 -1.22024,0.61011 -13.15625,0 -14.28572,0 -7.61904,0 -15.23809,0 -22.85714,0 -1.28673,0 -7.7019,-0.43477 -8.57143,0 -1.20467,0.60233 -1.65246,2.2548 -2.85714,2.85714 -0.85184,0.42592 -1.90476,0 -2.85714,0 -1.90476,0 -3.80953,0 -5.71429,0 -6.66667,0 -13.33333,0 -20,0 -22.85714,0 -45.71428,0 -68.57143,0 -77.14285,0 -154.28571,0 -231.428569,0"
       id="path2989"
       inkscape:connector-curvature="0" />
  </g>
</svg>
